# Blender v2.77 (sub 0) OBJ File: 'chair.blend'
# www.blender.org
mtllib chair.mtl
o Cube_Cube.001
v -0.867088 1.649482 0.867088
v -0.867088 1.786615 0.867088
v -0.867088 1.649482 -0.867088
v -0.867088 1.786615 -0.867088
v 0.867088 1.649482 0.867088
v 0.867088 1.786615 0.867088
v 0.867088 1.649482 -0.867088
v 0.867088 1.786615 -0.867088
v -0.867088 1.786615 -0.680007
v -0.867088 1.649482 -0.680007
v 0.867088 1.786615 -0.680007
v 0.867088 1.649482 -0.680007
v -0.867088 3.715752 -0.680007
v -0.867088 3.715752 -0.867088
v 0.867088 3.715752 -0.867088
v 0.867088 3.715752 -0.680007
vn -1.0000 0.0000 0.0000
vn 0.0000 0.0000 -1.0000
vn 1.0000 0.0000 0.0000
vn 0.0000 0.0000 1.0000
vn 0.0000 -1.0000 0.0000
vn 0.0000 1.0000 0.0000
usemtl Seat_Top
s off
f 9//1 4//1 3//1 10//1
f 4//2 8//2 7//2 3//2
f 11//3 6//3 5//3 12//3
f 6//4 2//4 1//4 5//4
f 10//5 3//5 7//5 12//5
f 4//1 9//1 13//1 14//1
f 6//6 11//6 9//6 2//6
f 1//5 10//5 12//5 5//5
f 8//3 11//3 12//3 7//3
f 2//1 9//1 10//1 1//1
f 16//6 15//6 14//6 13//6
f 8//2 4//2 14//2 15//2
f 9//4 11//4 16//4 13//4
f 11//3 8//3 15//3 16//3
o Stand_Cylinder.001
v 0.000000 0.100000 -0.199246
v 0.000000 1.670466 -0.199246
v 0.038871 0.100000 -0.195418
v 0.038871 1.670466 -0.195418
v 0.076248 0.100000 -0.184079
v 0.076248 1.670466 -0.184079
v 0.110695 0.100000 -0.165667
v 0.110695 1.670466 -0.165667
v 0.140888 0.100000 -0.140888
v 0.140888 1.670466 -0.140888
v 0.165667 0.100000 -0.110695
v 0.165667 1.670466 -0.110695
v 0.184079 0.100000 -0.076248
v 0.184079 1.670466 -0.076248
v 0.195418 0.100000 -0.038871
v 0.195418 1.670466 -0.038871
v 0.199246 0.100000 -0.000000
v 0.199246 1.670466 -0.000000
v 0.195418 0.100000 0.038871
v 0.195418 1.670466 0.038871
v 0.184079 0.100000 0.076248
v 0.184079 1.670466 0.076248
v 0.165667 0.100000 0.110695
v 0.165667 1.670466 0.110695
v 0.140888 0.100000 0.140888
v 0.140888 1.670466 0.140888
v 0.110695 0.100000 0.165667
v 0.110695 1.670466 0.165667
v 0.076248 0.100000 0.184079
v 0.076248 1.670466 0.184079
v 0.038871 0.100000 0.195418
v 0.038871 1.670466 0.195418
v -0.000000 0.100000 0.199246
v -0.000000 1.670466 0.199246
v -0.038871 0.100000 0.195418
v -0.038871 1.670466 0.195418
v -0.076248 0.100000 0.184079
v -0.076248 1.670466 0.184079
v -0.110695 0.100000 0.165667
v -0.110695 1.670466 0.165667
v -0.140888 0.100000 0.140888
v -0.140888 1.670466 0.140888
v -0.165667 0.100000 0.110695
v -0.165667 1.670466 0.110695
v -0.184080 0.100000 0.076248
v -0.184080 1.670466 0.076248
v -0.195418 0.100000 0.038871
v -0.195418 1.670466 0.038871
v -0.199246 0.100000 -0.000000
v -0.199246 1.670466 -0.000000
v -0.195418 0.100000 -0.038871
v -0.195418 1.670466 -0.038871
v -0.184079 0.100000 -0.076248
v -0.184079 1.670466 -0.076248
v -0.165667 0.100000 -0.110695
v -0.165667 1.670466 -0.110695
v -0.140888 0.100000 -0.140888
v -0.140888 1.670466 -0.140888
v -0.110695 0.100000 -0.165667
v -0.110695 1.670466 -0.165667
v -0.076248 0.100000 -0.184080
v -0.076248 1.670466 -0.184080
v -0.038871 0.100000 -0.195418
v -0.038871 1.670466 -0.195418
vn 0.0980 0.0000 -0.9952
vn 0.2903 0.0000 -0.9569
vn 0.4714 0.0000 -0.8819
vn 0.6344 0.0000 -0.7730
vn 0.7730 0.0000 -0.6344
vn 0.8819 0.0000 -0.4714
vn 0.9569 0.0000 -0.2903
vn 0.9952 0.0000 -0.0980
vn 0.9952 0.0000 0.0980
vn 0.9569 0.0000 0.2903
vn 0.8819 0.0000 0.4714
vn 0.7730 0.0000 0.6344
vn 0.6344 0.0000 0.7730
vn 0.4714 0.0000 0.8819
vn 0.2903 0.0000 0.9569
vn 0.0980 0.0000 0.9952
vn -0.0980 0.0000 0.9952
vn -0.2903 0.0000 0.9569
vn -0.4714 0.0000 0.8819
vn -0.6344 0.0000 0.7730
vn -0.7730 0.0000 0.6344
vn -0.8819 0.0000 0.4714
vn -0.9569 0.0000 0.2903
vn -0.9952 0.0000 0.0980
vn -0.9952 0.0000 -0.0980
vn -0.9569 0.0000 -0.2903
vn -0.8819 0.0000 -0.4714
vn -0.7730 0.0000 -0.6344
vn -0.6344 0.0000 -0.7730
vn -0.4714 0.0000 -0.8819
vn -0.2903 0.0000 -0.9569
vn -0.0980 0.0000 -0.9952
usemtl Seat_Bottom
s off
f 17//7 18//7 20//7 19//7
f 19//8 20//8 22//8 21//8
f 21//9 22//9 24//9 23//9
f 23//10 24//10 26//10 25//10
f 25//11 26//11 28//11 27//11
f 27//12 28//12 30//12 29//12
f 29//13 30//13 32//13 31//13
f 31//14 32//14 34//14 33//14
f 33//15 34//15 36//15 35//15
f 35//16 36//16 38//16 37//16
f 37//17 38//17 40//17 39//17
f 39//18 40//18 42//18 41//18
f 41//19 42//19 44//19 43//19
f 43//20 44//20 46//20 45//20
f 45//21 46//21 48//21 47//21
f 47//22 48//22 50//22 49//22
f 49//23 50//23 52//23 51//23
f 51//24 52//24 54//24 53//24
f 53//25 54//25 56//25 55//25
f 55//26 56//26 58//26 57//26
f 57//27 58//27 60//27 59//27
f 59//28 60//28 62//28 61//28
f 61//29 62//29 64//29 63//29
f 63//30 64//30 66//30 65//30
f 65//31 66//31 68//31 67//31
f 67//32 68//32 70//32 69//32
f 69//33 70//33 72//33 71//33
f 71//34 72//34 74//34 73//34
f 73//35 74//35 76//35 75//35
f 75//36 76//36 78//36 77//36
f 77//37 78//37 80//37 79//37
f 79//38 80//38 18//38 17//38
o Base_Cylinder
v 0.000000 0.200000 -1.000000
v 0.000000 -0.000000 -1.000000
v 0.195090 0.200000 -0.980785
v 0.195090 -0.000000 -0.980785
v 0.382683 0.200000 -0.923880
v 0.382683 -0.000000 -0.923880
v 0.555570 0.200000 -0.831470
v 0.555570 -0.000000 -0.831470
v 0.707107 0.200000 -0.707107
v 0.707107 -0.000000 -0.707107
v 0.831470 0.200000 -0.555570
v 0.831470 -0.000000 -0.555570
v 0.923880 0.200000 -0.382683
v 0.923880 -0.000000 -0.382683
v 0.980785 0.200000 -0.195090
v 0.980785 -0.000000 -0.195090
v 1.000000 0.200000 -0.000000
v 1.000000 -0.000000 -0.000000
v 0.980785 0.200000 0.195090
v 0.980785 -0.000000 0.195090
v 0.923880 0.200000 0.382683
v 0.923880 -0.000000 0.382683
v 0.831470 0.200000 0.555570
v 0.831470 -0.000000 0.555570
v 0.707107 0.200000 0.707107
v 0.707107 -0.000000 0.707107
v 0.555570 0.200000 0.831470
v 0.555570 -0.000000 0.831470
v 0.382683 0.200000 0.923880
v 0.382683 -0.000000 0.923880
v 0.195090 0.200000 0.980785
v 0.195090 -0.000000 0.980785
v -0.000000 0.200000 1.000000
v -0.000000 -0.000000 1.000000
v -0.195091 0.200000 0.980785
v -0.195091 -0.000000 0.980785
v -0.382684 0.200000 0.923879
v -0.382684 -0.000000 0.923879
v -0.555571 0.200000 0.831469
v -0.555571 -0.000000 0.831469
v -0.707107 0.200000 0.707106
v -0.707107 -0.000000 0.707106
v -0.831470 0.200000 0.555570
v -0.831470 -0.000000 0.555570
v -0.923880 0.200000 0.382683
v -0.923880 -0.000000 0.382683
v -0.980785 0.200000 0.195089
v -0.980785 -0.000000 0.195089
v -1.000000 0.200000 -0.000001
v -1.000000 -0.000000 -0.000001
v -0.980785 0.200000 -0.195091
v -0.980785 -0.000000 -0.195091
v -0.923879 0.200000 -0.382684
v -0.923879 -0.000000 -0.382684
v -0.831469 0.200000 -0.555571
v -0.831469 -0.000000 -0.555571
v -0.707106 0.200000 -0.707108
v -0.707106 -0.000000 -0.707108
v -0.555569 0.200000 -0.831470
v -0.555569 -0.000000 -0.831470
v -0.382682 0.200000 -0.923880
v -0.382682 -0.000000 -0.923880
v -0.195089 0.200000 -0.980786
v -0.195089 -0.000000 -0.980786
vn 0.0980 0.0000 -0.9952
vn 0.2903 0.0000 -0.9569
vn 0.4714 0.0000 -0.8819
vn 0.6344 0.0000 -0.7730
vn 0.7730 0.0000 -0.6344
vn 0.8819 0.0000 -0.4714
vn 0.9569 0.0000 -0.2903
vn 0.9952 0.0000 -0.0980
vn 0.9952 0.0000 0.0980
vn 0.9569 0.0000 0.2903
vn 0.8819 0.0000 0.4714
vn 0.7730 0.0000 0.6344
vn 0.6344 0.0000 0.7730
vn 0.4714 0.0000 0.8819
vn 0.2903 0.0000 0.9569
vn 0.0980 0.0000 0.9952
vn -0.0980 0.0000 0.9952
vn -0.2903 0.0000 0.9569
vn -0.4714 0.0000 0.8819
vn -0.6344 0.0000 0.7730
vn -0.7730 0.0000 0.6344
vn -0.8819 0.0000 0.4714
vn -0.9569 0.0000 0.2903
vn -0.9952 0.0000 0.0980
vn -0.9952 0.0000 -0.0980
vn -0.9569 0.0000 -0.2903
vn -0.8819 0.0000 -0.4714
vn -0.7730 0.0000 -0.6344
vn -0.6344 0.0000 -0.7730
vn -0.4714 0.0000 -0.8819
vn -0.2903 0.0000 -0.9569
vn -0.0980 0.0000 -0.9952
vn 0.0000 1.0000 -0.0000
usemtl Seat_Bottom
s off
f 81//39 83//39 84//39 82//39
f 83//40 85//40 86//40 84//40
f 85//41 87//41 88//41 86//41
f 87//42 89//42 90//42 88//42
f 89//43 91//43 92//43 90//43
f 91//44 93//44 94//44 92//44
f 93//45 95//45 96//45 94//45
f 95//46 97//46 98//46 96//46
f 97//47 99//47 100//47 98//47
f 99//48 101//48 102//48 100//48
f 101//49 103//49 104//49 102//49
f 103//50 105//50 106//50 104//50
f 105//51 107//51 108//51 106//51
f 107//52 109//52 110//52 108//52
f 109//53 111//53 112//53 110//53
f 111//54 113//54 114//54 112//54
f 113//55 115//55 116//55 114//55
f 115//56 117//56 118//56 116//56
f 117//57 119//57 120//57 118//57
f 119//58 121//58 122//58 120//58
f 121//59 123//59 124//59 122//59
f 123//60 125//60 126//60 124//60
f 125//61 127//61 128//61 126//61
f 127//62 129//62 130//62 128//62
f 129//63 131//63 132//63 130//63
f 131//64 133//64 134//64 132//64
f 133//65 135//65 136//65 134//65
f 135//66 137//66 138//66 136//66
f 137//67 139//67 140//67 138//67
f 139//68 141//68 142//68 140//68
f 141//69 143//69 144//69 142//69
f 143//70 81//70 82//70 144//70
f 81//71 143//71 141//71 139//71 137//71 135//71 133//71 131//71 129//71 127//71 125//71 123//71 121//71 119//71 117//71 115//71 113//71 111//71 109//71 107//71 105//71 103//71 101//71 99//71 97//71 95//71 93//71 91//71 89//71 87//71 85//71 83//71
